<svg width="127px" height="127px" viewBox="0 0 127 127" version="1.1" xmlns="http://www.w3.org/2000/svg" xmlns:xlink="http://www.w3.org/1999/xlink">
	<!-- Generator: Sketch 41.1 (35376) - http://www.bohemiancoding.com/sketch -->
	<desc>Created with Sketch.</desc>
	<defs></defs>
	<g id="Group" stroke="none" stroke-width="1" fill="none" fill-rule="evenodd">
		<path d="M19.193,40.462 C19.193,40.462 11.726,49.888 8.776,54.635 C8.776,54.635 -5.439,74.219 3.309,96.986 C3.28,96.909 -1.074,85.105 26.175,69.846 C26.175,69.846 92.385,29.385 90.695,8.21 C90.695,8.21 80.754,25.508 66.239,32.467 C66.239,32.467 64.114,33.299 45.787,0.874 C45.787,0.875 39.099,16.263 19.193,40.462" id="Shape" fill="#FFFFFF"></path>
		<path d="M52.072,58.39 C29.804,70.988 14.743,82.87 14.743,82.87 C-5.389,98.279 13.301,113.488 13.301,113.488 C8.925,98.03 33.805,80.98 33.805,80.98 C36.564,79.042 60.796,62.116 60.796,62.116 C88.011,41.91 90.845,24.166 90.845,24.166 C75.559,44.446 52.072,58.39 52.072,58.39" id="Shape" fill="#FFFFFF"></path>
		<path d="M48.245,79.191 C48.245,79.191 19.116,88.336 21.104,114.483 L35.668,116.396 C35.668,116.396 36.265,106.181 38.576,101.559 C38.576,101.559 37.756,115.278 39.471,116.396 L51.699,111.773 C51.699,111.773 49.536,99.919 51.103,96.191 C51.103,96.191 51.998,109.537 53.638,110.431 L57.888,107.449 L56.695,93.73 L59.154,106.108 L63.33,102.529 C63.33,102.529 61.168,94.029 62.212,89.256 C62.212,89.256 63.404,100.665 64.672,100.963 L68.401,95.444 L68.549,85.455 L69.668,92.91 C69.668,92.91 74.366,82.472 75.036,76.283 C75.036,76.283 70.637,134.217 14.195,114.235 C14.195,114.235 34.028,135.26 62.51,121.392 C62.51,121.392 101.53,101.559 74.44,53.989 C74.44,53.989 70.712,72.629 48.245,79.191" id="Shape" fill="#FFFFFF"></path>
	</g>
</svg>
